<?xml version="1.0" encoding="UTF-8" standalone="no"?>
<!-- Created with Inkscape (http://www.inkscape.org/) -->

<svg
   width="512"
   height="512"
   viewBox="0 0 512 512"
   version="1.1"
   id="svg1"
   inkscape:version="1.3.2 (091e20ef0f, 2023-11-25)"
   sodipodi:docname="logo.svg"
   xml:space="preserve"
   inkscape:export-filename="logo.png"
   inkscape:export-xdpi="96"
   inkscape:export-ydpi="96"
   xmlns:inkscape="http://www.inkscape.org/namespaces/inkscape"
   xmlns:sodipodi="http://sodipodi.sourceforge.net/DTD/sodipodi-0.dtd"
   xmlns:xlink="http://www.w3.org/1999/xlink"
   xmlns="http://www.w3.org/2000/svg"
   xmlns:svg="http://www.w3.org/2000/svg"><sodipodi:namedview
     id="namedview1"
     pagecolor="#000000"
     bordercolor="#ffffff"
     borderopacity="1"
     inkscape:showpageshadow="0"
     inkscape:pageopacity="0"
     inkscape:pagecheckerboard="false"
     inkscape:deskcolor="#505050"
     inkscape:document-units="px"
     inkscape:zoom="0.56862971"
     inkscape:cx="73.861775"
     inkscape:cy="77.379002"
     inkscape:window-width="1920"
     inkscape:window-height="1124"
     inkscape:window-x="0"
     inkscape:window-y="32"
     inkscape:window-maximized="1"
     inkscape:current-layer="layer2"
     inkscape:export-bgcolor="#000000ff"
     showgrid="false" /><defs
     id="defs1"><linearGradient
       id="linearGradient34"
       inkscape:collect="always"><stop
         style="stop-color:#ff0000;stop-opacity:0.34655514;"
         offset="0"
         id="stop33" /><stop
         style="stop-color:#000000;stop-opacity:0;"
         offset="1"
         id="stop34" /></linearGradient><linearGradient
       id="linearGradient32"
       inkscape:collect="always"><stop
         style="stop-color:#ff0000;stop-opacity:0.4366599;"
         offset="0"
         id="stop31" /><stop
         style="stop-color:#000000;stop-opacity:0;"
         offset="1"
         id="stop32" /></linearGradient><linearGradient
       id="linearGradient30"
       inkscape:collect="always"><stop
         style="stop-color:#ff0000;stop-opacity:0.32596761;"
         offset="0"
         id="stop29" /><stop
         style="stop-color:#000000;stop-opacity:0;"
         offset="1"
         id="stop30" /></linearGradient><linearGradient
       id="linearGradient28"
       inkscape:collect="always"><stop
         style="stop-color:#ff0000;stop-opacity:0.36576572;"
         offset="0"
         id="stop27" /><stop
         style="stop-color:#000000;stop-opacity:0;"
         offset="1"
         id="stop28" /></linearGradient><linearGradient
       id="linearGradient26"
       inkscape:collect="always"><stop
         style="stop-color:#ff0000;stop-opacity:0.35048351;"
         offset="0"
         id="stop25" /><stop
         style="stop-color:#000000;stop-opacity:0;"
         offset="1"
         id="stop26" /></linearGradient><linearGradient
       id="linearGradient19"
       inkscape:collect="always"><stop
         style="stop-color:#ff0000;stop-opacity:0.46261156;"
         offset="0"
         id="stop19" /><stop
         style="stop-color:#000000;stop-opacity:0;"
         offset="1"
         id="stop20" /></linearGradient><inkscape:path-effect
       effect="bspline"
       id="path-effect19"
       is_visible="true"
       lpeversion="1.3"
       weight="33.333333"
       steps="2"
       helper_size="0"
       apply_no_weight="true"
       apply_with_weight="true"
       only_selected="false"
       uniform="false" /><linearGradient
       id="linearGradient16"
       inkscape:collect="always"><stop
         style="stop-color:#ff0000;stop-opacity:0.24628595;"
         offset="0"
         id="stop16" /><stop
         style="stop-color:#000000;stop-opacity:0;"
         offset="1"
         id="stop17" /></linearGradient><inkscape:path-effect
       effect="bspline"
       id="path-effect16"
       is_visible="true"
       lpeversion="1.3"
       weight="33.333333"
       steps="2"
       helper_size="0"
       apply_no_weight="true"
       apply_with_weight="true"
       only_selected="false"
       uniform="false" /><inkscape:path-effect
       effect="bspline"
       id="path-effect15"
       is_visible="true"
       lpeversion="1.3"
       weight="33.333333"
       steps="2"
       helper_size="0"
       apply_no_weight="true"
       apply_with_weight="true"
       only_selected="false"
       uniform="false" /><linearGradient
       id="linearGradient14"
       inkscape:collect="always"><stop
         style="stop-color:#ff0000;stop-opacity:0.262119;"
         offset="0"
         id="stop14" /><stop
         style="stop-color:#000000;stop-opacity:0;"
         offset="1"
         id="stop15" /></linearGradient><inkscape:path-effect
       effect="bspline"
       id="path-effect14"
       is_visible="true"
       lpeversion="1.3"
       weight="33.333333"
       steps="2"
       helper_size="0"
       apply_no_weight="true"
       apply_with_weight="true"
       only_selected="false"
       uniform="false" /><linearGradient
       id="linearGradient148"
       inkscape:collect="always"><stop
         style="stop-color:#000000;stop-opacity:0.8714273;"
         offset="0"
         id="stop145" /><stop
         style="stop-color:#000000;stop-opacity:0;"
         offset="1"
         id="stop148" /></linearGradient><linearGradient
       id="linearGradient138"
       inkscape:collect="always"><stop
         style="stop-color:#000000;stop-opacity:0;"
         offset="0.00171469"
         id="stop139" /><stop
         style="stop-color:#410e07;stop-opacity:0.67843139;"
         offset="0.75690371"
         id="stop141" /><stop
         style="stop-color:#000000;stop-opacity:1;"
         offset="1"
         id="stop149" /></linearGradient><linearGradient
       id="linearGradient121"
       inkscape:collect="always"><stop
         style="stop-color:#b82828;stop-opacity:0.8163892;"
         offset="0"
         id="stop123" /><stop
         style="stop-color:#f9b70f;stop-opacity:1;"
         offset="0.66399693"
         id="stop124" /><stop
         style="stop-color:#ffb90a;stop-opacity:1;"
         offset="0.74579668"
         id="stop142" /><stop
         style="stop-color:#2e150b;stop-opacity:1;"
         offset="1"
         id="stop125" /></linearGradient><linearGradient
       id="linearGradient117"
       inkscape:collect="always"><stop
         style="stop-color:#000000;stop-opacity:1;"
         offset="0"
         id="stop117" /><stop
         style="stop-color:#000000;stop-opacity:0;"
         offset="0.83360922"
         id="stop119" /><stop
         style="stop-color:#2b2b2b;stop-opacity:0.23999999;"
         offset="0.96347046"
         id="stop120" /><stop
         style="stop-color:#f38a8a;stop-opacity:0.0513618;"
         offset="1"
         id="stop118" /></linearGradient><linearGradient
       id="linearGradient5"
       inkscape:collect="always"><stop
         style="stop-color:#f91f1f;stop-opacity:1;"
         offset="0"
         id="stop5" /><stop
         style="stop-color:#a30000;stop-opacity:0;"
         offset="1"
         id="stop4" /></linearGradient><linearGradient
       id="linearGradient2"
       inkscape:collect="always"><stop
         style="stop-color:#282828;stop-opacity:0;"
         offset="0.8100726"
         id="stop3" /><stop
         style="stop-color:#8a7070;stop-opacity:1;"
         offset="0.99166089"
         id="stop121" /><stop
         style="stop-color:#b99090;stop-opacity:0.63301408;"
         offset="1"
         id="stop2" /></linearGradient><radialGradient
       inkscape:collect="always"
       xlink:href="#linearGradient2"
       id="radialGradient3"
       cx="256"
       cy="256"
       fx="256"
       fy="256"
       r="204.18346"
       gradientUnits="userSpaceOnUse" /><radialGradient
       inkscape:collect="always"
       xlink:href="#linearGradient5"
       id="radialGradient3-7"
       cx="256"
       cy="256"
       fx="256"
       fy="256"
       r="204.18346"
       gradientUnits="userSpaceOnUse"
       gradientTransform="matrix(0.62754333,0,0,0.62754333,95.348911,95.348901)" /><filter
       inkscape:collect="always"
       style="color-interpolation-filters:sRGB"
       id="filter8"
       x="-0.00067619296"
       y="-0.0026810793"
       width="1.0013524"
       height="1.0053622"><feGaussianBlur
         inkscape:collect="always"
         stdDeviation="0.093744736"
         id="feGaussianBlur8" /></filter><filter
       id="mask-powermask-path-effect89_inverse"
       inkscape:label="filtermask-powermask-path-effect89"
       style="color-interpolation-filters:sRGB"
       height="100"
       width="100"
       x="-50"
       y="-50"><feColorMatrix
         id="mask-powermask-path-effect89_primitive1"
         values="1"
         type="saturate"
         result="fbSourceGraphic" /><feColorMatrix
         id="mask-powermask-path-effect89_primitive2"
         values="-1 0 0 0 1 0 -1 0 0 1 0 0 -1 0 1 0 0 0 1 0 "
         in="fbSourceGraphic" /></filter><filter
       id="mask-powermask-path-effect99_inverse"
       inkscape:label="filtermask-powermask-path-effect99"
       style="color-interpolation-filters:sRGB"
       height="100"
       width="100"
       x="-50"
       y="-50"><feColorMatrix
         id="mask-powermask-path-effect99_primitive1"
         values="1"
         type="saturate"
         result="fbSourceGraphic" /><feColorMatrix
         id="mask-powermask-path-effect99_primitive2"
         values="-1 0 0 0 1 0 -1 0 0 1 0 0 -1 0 1 0 0 0 1 0 "
         in="fbSourceGraphic" /></filter><radialGradient
       inkscape:collect="always"
       xlink:href="#linearGradient117"
       id="radialGradient118"
       cx="256"
       cy="256"
       fx="256"
       fy="256"
       r="212.24815"
       gradientUnits="userSpaceOnUse" /><radialGradient
       inkscape:collect="always"
       xlink:href="#linearGradient121"
       id="radialGradient128"
       cx="257.51453"
       cy="389.66409"
       fx="257.51453"
       fy="389.66409"
       r="166.58829"
       gradientTransform="matrix(1.5413717,0.01675705,-0.00819231,0.75355755,-133.63703,102.94328)"
       gradientUnits="userSpaceOnUse" /><radialGradient
       inkscape:collect="always"
       xlink:href="#linearGradient138"
       id="radialGradient140"
       cx="256.25966"
       cy="254.78863"
       fx="256.25966"
       fy="254.78863"
       r="256"
       gradientUnits="userSpaceOnUse"
       gradientTransform="translate(-0.25965664,1.2113734)" /><radialGradient
       inkscape:collect="always"
       xlink:href="#linearGradient148"
       id="radialGradient128-8"
       cx="255.24556"
       cy="572.51538"
       fx="255.24556"
       fy="572.51538"
       r="166.58829"
       gradientTransform="matrix(2.4147657,-0.00360855,0.00286329,1.9160148,-361.65498,-560.2034)"
       gradientUnits="userSpaceOnUse" /><filter
       inkscape:collect="always"
       style="color-interpolation-filters:sRGB"
       id="filter8-1"
       x="-0.00067619296"
       y="-0.0026810793"
       width="1.0013524"
       height="1.0053622"><feGaussianBlur
         inkscape:collect="always"
         stdDeviation="0.093744736"
         id="feGaussianBlur8-2" /></filter><linearGradient
       inkscape:collect="always"
       xlink:href="#linearGradient14"
       id="linearGradient15"
       x1="407.25266"
       y1="220.37851"
       x2="361.85104"
       y2="356.30646"
       gradientUnits="userSpaceOnUse" /><filter
       inkscape:collect="always"
       style="color-interpolation-filters:sRGB"
       id="filter15"
       x="-0.18351095"
       y="-0.37239303"
       width="1.3670219"
       height="1.7447861"><feGaussianBlur
         inkscape:collect="always"
         stdDeviation="7.3820104"
         id="feGaussianBlur15" /></filter><linearGradient
       inkscape:collect="always"
       xlink:href="#linearGradient16"
       id="linearGradient17"
       x1="296.14352"
       y1="166.10516"
       x2="278.46356"
       y2="193.90662"
       gradientUnits="userSpaceOnUse" /><filter
       inkscape:collect="always"
       style="color-interpolation-filters:sRGB"
       id="filter17"
       x="-0.23816308"
       y="-0.40770684"
       width="1.4763262"
       height="1.8154137"><feGaussianBlur
         inkscape:collect="always"
         stdDeviation="5.5084249"
         id="feGaussianBlur17" /></filter><linearGradient
       inkscape:collect="always"
       xlink:href="#linearGradient28"
       id="linearGradient20"
       x1="68.964417"
       y1="99.192823"
       x2="113.4403"
       y2="99.192823"
       gradientUnits="userSpaceOnUse" /><filter
       inkscape:collect="always"
       style="color-interpolation-filters:sRGB"
       id="filter20"
       x="-0.56549278"
       y="-0.47189232"
       width="2.1309856"
       height="1.9437846"><feGaussianBlur
         inkscape:collect="always"
         stdDeviation="10.479497"
         id="feGaussianBlur20" /></filter><filter
       inkscape:collect="always"
       style="color-interpolation-filters:sRGB"
       id="filter20-7"
       x="-0.56549278"
       y="-0.47189232"
       width="2.1309856"
       height="1.9437846"><feGaussianBlur
         inkscape:collect="always"
         stdDeviation="10.479497"
         id="feGaussianBlur20-8" /></filter><inkscape:path-effect
       effect="bspline"
       id="path-effect19-4"
       is_visible="true"
       lpeversion="1.3"
       weight="33.333333"
       steps="2"
       helper_size="0"
       apply_no_weight="true"
       apply_with_weight="true"
       only_selected="false"
       uniform="false" /><linearGradient
       inkscape:collect="always"
       xlink:href="#linearGradient30"
       id="linearGradient21"
       gradientUnits="userSpaceOnUse"
       x1="68.964417"
       y1="99.192823"
       x2="113.4403"
       y2="99.192823" /><filter
       inkscape:collect="always"
       style="color-interpolation-filters:sRGB"
       id="filter20-7-3"
       x="-0.56549278"
       y="-0.47189232"
       width="2.1309856"
       height="1.9437846"><feGaussianBlur
         inkscape:collect="always"
         stdDeviation="10.479497"
         id="feGaussianBlur20-8-2" /></filter><inkscape:path-effect
       effect="bspline"
       id="path-effect19-4-0"
       is_visible="true"
       lpeversion="1.3"
       weight="33.333333"
       steps="2"
       helper_size="0"
       apply_no_weight="true"
       apply_with_weight="true"
       only_selected="false"
       uniform="false" /><linearGradient
       inkscape:collect="always"
       xlink:href="#linearGradient32"
       id="linearGradient22"
       gradientUnits="userSpaceOnUse"
       x1="68.964417"
       y1="99.192823"
       x2="113.4403"
       y2="99.192823" /><filter
       inkscape:collect="always"
       style="color-interpolation-filters:sRGB"
       id="filter20-6"
       x="-0.56549278"
       y="-0.47189232"
       width="2.1309856"
       height="1.9437846"><feGaussianBlur
         inkscape:collect="always"
         stdDeviation="10.479497"
         id="feGaussianBlur20-5" /></filter><inkscape:path-effect
       effect="bspline"
       id="path-effect19-6"
       is_visible="true"
       lpeversion="1.3"
       weight="33.333333"
       steps="2"
       helper_size="0"
       apply_no_weight="true"
       apply_with_weight="true"
       only_selected="false"
       uniform="false" /><linearGradient
       inkscape:collect="always"
       xlink:href="#linearGradient26"
       id="linearGradient23"
       gradientUnits="userSpaceOnUse"
       x1="68.964417"
       y1="99.192823"
       x2="113.4403"
       y2="99.192823" /><filter
       inkscape:collect="always"
       style="color-interpolation-filters:sRGB"
       id="filter20-6-4"
       x="-0.56549278"
       y="-0.47189232"
       width="2.1309856"
       height="1.9437846"><feGaussianBlur
         inkscape:collect="always"
         stdDeviation="10.479497"
         id="feGaussianBlur20-5-7" /></filter><inkscape:path-effect
       effect="bspline"
       id="path-effect19-6-4"
       is_visible="true"
       lpeversion="1.3"
       weight="33.333333"
       steps="2"
       helper_size="0"
       apply_no_weight="true"
       apply_with_weight="true"
       only_selected="false"
       uniform="false" /><linearGradient
       inkscape:collect="always"
       xlink:href="#linearGradient34"
       id="linearGradient24"
       gradientUnits="userSpaceOnUse"
       x1="68.964417"
       y1="99.192823"
       x2="113.4403"
       y2="99.192823" /><filter
       inkscape:collect="always"
       style="color-interpolation-filters:sRGB"
       id="filter20-6-4-8"
       x="-0.56549278"
       y="-0.47189232"
       width="2.1309856"
       height="1.9437846"><feGaussianBlur
         inkscape:collect="always"
         stdDeviation="10.479497"
         id="feGaussianBlur20-5-7-4" /></filter><inkscape:path-effect
       effect="bspline"
       id="path-effect19-6-4-3"
       is_visible="true"
       lpeversion="1.3"
       weight="33.333333"
       steps="2"
       helper_size="0"
       apply_no_weight="true"
       apply_with_weight="true"
       only_selected="false"
       uniform="false" /><linearGradient
       inkscape:collect="always"
       xlink:href="#linearGradient19"
       id="linearGradient25"
       gradientUnits="userSpaceOnUse"
       x1="68.964417"
       y1="99.192823"
       x2="113.4403"
       y2="99.192823" /><linearGradient
       inkscape:collect="always"
       xlink:href="#linearGradient30"
       id="linearGradient21-0"
       gradientUnits="userSpaceOnUse"
       x1="68.964417"
       y1="99.192825"
       x2="113.4403"
       y2="99.192825" /><filter
       inkscape:collect="always"
       style="color-interpolation-filters:sRGB"
       id="filter20-7-9"
       x="-0.56549278"
       y="-0.47189232"
       width="2.1309856"
       height="1.9437846"><feGaussianBlur
         inkscape:collect="always"
         stdDeviation="10.479497"
         id="feGaussianBlur20-8-26" /></filter><inkscape:path-effect
       effect="bspline"
       id="path-effect19-4-6"
       is_visible="true"
       lpeversion="1.3"
       weight="33.333333"
       steps="2"
       helper_size="0"
       apply_no_weight="true"
       apply_with_weight="true"
       only_selected="false"
       uniform="false" /><linearGradient
       inkscape:collect="always"
       xlink:href="#linearGradient32"
       id="linearGradient22-4"
       gradientUnits="userSpaceOnUse"
       x1="68.964417"
       y1="99.192825"
       x2="113.4403"
       y2="99.192825" /><filter
       inkscape:collect="always"
       style="color-interpolation-filters:sRGB"
       id="filter20-7-3-1"
       x="-0.56549278"
       y="-0.47189232"
       width="2.1309856"
       height="1.9437846"><feGaussianBlur
         inkscape:collect="always"
         stdDeviation="10.479497"
         id="feGaussianBlur20-8-2-7" /></filter><inkscape:path-effect
       effect="bspline"
       id="path-effect19-4-0-2"
       is_visible="true"
       lpeversion="1.3"
       weight="33.333333"
       steps="2"
       helper_size="0"
       apply_no_weight="true"
       apply_with_weight="true"
       only_selected="false"
       uniform="false" /><linearGradient
       inkscape:collect="always"
       xlink:href="#linearGradient34"
       id="linearGradient24-1"
       gradientUnits="userSpaceOnUse"
       x1="68.964417"
       y1="99.192825"
       x2="113.4403"
       y2="99.192825" /><filter
       inkscape:collect="always"
       style="color-interpolation-filters:sRGB"
       id="filter20-6-4-1"
       x="-0.56549278"
       y="-0.47189232"
       width="2.1309856"
       height="1.9437846"><feGaussianBlur
         inkscape:collect="always"
         stdDeviation="10.479497"
         id="feGaussianBlur20-5-7-5" /></filter><inkscape:path-effect
       effect="bspline"
       id="path-effect19-6-4-9"
       is_visible="true"
       lpeversion="1.3"
       weight="33.333333"
       steps="2"
       helper_size="0"
       apply_no_weight="true"
       apply_with_weight="true"
       only_selected="false"
       uniform="false" /></defs><g
     inkscape:groupmode="layer"
     id="layer6"
     inkscape:label="Background"
     style="display:inline"><rect
       style="opacity:1;fill:#000000;fill-opacity:0.358805;stroke:none;stroke-opacity:0.373898"
       id="background"
       width="512"
       height="512"
       x="0"
       y="0"
       inkscape:label="background" /><rect
       style="display:inline;opacity:1;fill:url(#radialGradient140);fill-opacity:0.358805;stroke:none;stroke-opacity:0.373898"
       id="background-halo"
       width="512"
       height="512"
       x="0"
       y="0"
       inkscape:label="background-halo" /></g><g
     inkscape:groupmode="layer"
     id="layer4"
     inkscape:label="Hand Audience Left"><g
       id="filled_hand_audience_left"
       transform="translate(13.31105,10.071458)"><g
         id="hand_audience_left"
         transform="matrix(1.2766239,0,0,1.2766239,-792.85964,-416.72602)">
			<path
   class="st0"
   d="m 693.2,328.9 c -3.7,0.6 -6.9,1.9 -9.7,3.7 -1.8,1.2 -4.5,4 -5.6,5.9 -4.6,7.6 -3.6,16.3 2.8,22.8 1.8,1.9 4.2,3.5 6.7,4.6 2.8,1.2 3.5,1.6 6.4,4 2.3,1.8 3.2,2.8 5.5,5.6 3.8,4.7 5.7,8.8 6.1,12.7 0.2,1.8 0,2.5 -0.8,2.5 -1.1,0 -4.6,-3.1 -8.2,-7.2 -2.7,-3.2 -8.4,-8.6 -11.1,-10.6 -1.3,-1 -2.8,-2.2 -3.4,-2.6 -1,-0.8 -5.6,-3.8 -5.9,-3.8 0,0 -0.8,-0.4 -1.7,-0.9 -1.7,-1 -6.4,-3.1 -6.8,-3.1 -0.1,0 -0.5,-0.2 -1,-0.4 -1.3,-0.6 -4.5,-1.5 -7.2,-2 -3.8,-0.8 -10.4,-0.8 -13.7,0 -5.9,1.4 -10,3.5 -13.7,7.3 -3.5,3.5 -5.6,7.5 -6.3,12 -1.1,7.5 1.6,14.4 7.5,18.5 1.5,1.1 4.1,2.1 6.6,2.6 3.1,0.6 8.7,0.3 12.3,-0.8 0.7,-0.2 0.9,-0.1 1.9,0.6 0.6,0.5 1.6,1 2.1,1.3 1.4,0.6 4.9,1.4 6.6,1.4 1.4,0 3.6,0.6 6.9,1.9 2.6,1 3.8,2.5 4.1,5.4 0.2,2 -0.2,3.4 -1,3.7 -1,0.4 -4.9,0.3 -7.8,-0.2 -3.9,-0.6 -14.6,-0.6 -18.6,0.1 -3.8,0.6 -5.9,1.3 -8.5,2.6 -2.9,1.5 -4.8,2.9 -6.4,4.7 -3.2,3.8 -4.8,8 -6.8,18.1 -0.7,3.6 -0.8,8.3 -0.1,10.5 0.8,2.7 2.6,5 5.2,6.7 0.9,0.6 1.2,1 1.2,1.3 0,0.3 -0.4,1.7 -1,3.2 -0.5,1.4 -1.2,3.7 -1.6,5 -0.5,2.1 -0.6,2.8 -0.5,5.6 0.1,2.8 0.1,3.3 0.7,4.5 1.3,2.7 3.8,4.6 7.8,5.9 2.4,0.8 6.4,0.8 8.7,0.1 5.2,-1.6 9.6,-6.3 11.8,-12.5 0.4,-1.3 0.9,-4.1 1.1,-6 0,-0.5 0.1,-1.1 0.1,-1.3 0,-0.5 2.2,-2.6 2.9,-3 1.4,-0.7 3,-0.2 4.9,1.5 0.5,0.5 0.9,1.2 1.2,2.4 0.3,0.9 0.5,1.8 0.5,1.9 0,0.1 0.2,0.8 0.5,1.4 1.9,4.4 4.3,7.8 9.1,12.4 3.1,3 6.3,5.3 9.6,7 3.4,1.7 8.8,3.3 12.9,3.8 3.7,0.5 3.7,0.4 2.5,2.8 -1.4,2.7 -1.2,6.3 0.5,9.7 1.2,2.5 4.6,6.1 7.4,8.2 8.3,6 21.2,6.2 35.4,0.6 1.2,-0.5 2.4,-1 2.6,-1.1 0.2,-0.1 1.5,-0.7 2.8,-1.4 11.4,-5.6 22.2,-15.4 27.3,-24.7 2.2,-4 3.3,-7.4 3.6,-11 0.8,-8.8 -2.8,-16.2 -9.7,-19.7 -0.8,-0.4 -1.6,-0.9 -1.6,-1 -0.1,-0.2 0.1,-1 0.5,-2 0.3,-0.9 0.9,-2.8 1.2,-4.3 0.5,-2.3 0.6,-3.1 0.6,-6.3 0,-2.7 -0.1,-4.1 -0.4,-5.2 -0.2,-0.8 -0.4,-1.7 -0.4,-2 0,-0.9 4,-5.6 6.7,-7.9 1.1,-0.9 5.1,-3.5 5.4,-3.5 0.5,0 10.4,-5 12.1,-6.1 5.4,-3.5 8.7,-8.2 9.6,-13.9 0.3,-2.2 0.4,-2.8 0.1,-4.9 -0.6,-4.9 -2.5,-8.9 -6.1,-12.8 -3.2,-3.4 -6.7,-5.5 -10.9,-6.4 -3,-0.6 -4.9,-0.6 -8.1,0.1 -4.8,1.1 -8.1,2.6 -12.1,5.8 -4.8,3.8 -10.3,10.8 -12.9,16.5 -1.5,3.2 -1.7,3.8 -1.7,4.2 0,0.2 -0.2,0.5 -0.4,0.5 -0.3,0.1 -0.9,-0.3 -2,-1.5 -0.9,-1 -1.6,-1.9 -1.6,-2 0,-0.1 -0.6,-1.5 -1.3,-2.8 -0.7,-1.3 -1.9,-3.7 -2.5,-5.2 -0.7,-1.5 -1.3,-3.1 -1.5,-3.5 -0.2,-0.4 -0.5,-1.3 -0.8,-2 -0.3,-0.7 -0.8,-2.1 -1.1,-3 -0.3,-0.9 -0.8,-2.3 -1.1,-3 -0.3,-0.7 -0.7,-1.9 -1,-2.5 -0.3,-0.7 -0.7,-2 -1.1,-3.1 -0.3,-1 -0.8,-2.5 -1.1,-3.4 -0.2,-0.8 -0.5,-1.6 -0.5,-1.9 0,-0.5 -0.7,-2.9 -2,-7.4 -1.2,-3.9 -1.4,-4.3 -3.2,-8.1 -6.8,-14.1 -22.1,-25.1 -35.9,-25.7 -1.3,0 -2.9,0.1 -3.6,0.1 z m 6.6,5.6 c 9.2,1.5 20.2,9.1 26.5,18.6 2.2,3.3 3.2,5.4 4.8,10.6 0.5,1.5 1,3.3 1.3,4.2 0.3,0.9 0.6,2.1 0.7,2.7 0.2,1.4 2.1,7.1 2.9,8.9 0.3,0.7 0.7,1.7 0.7,2.1 0.1,0.5 0.3,1.1 0.5,1.5 0.2,0.4 0.6,1.3 0.8,2 1.9,4.9 3.5,8.4 4.6,10.2 0.8,1.3 0.8,2 -0.1,1.7 -2.1,-0.6 -3.5,-0.9 -4.1,-0.9 -1.6,0 -1.5,1.2 0.1,1.7 1.5,0.5 4.7,2.3 6.6,3.7 2.2,1.6 3.3,2.8 5.3,5.6 l 1.6,2.2 -0.2,2.2 c -0.1,1.2 -0.2,3.5 -0.4,5.1 -0.3,3.5 -0.3,7.7 -0.1,8.2 0.3,0.8 1.4,0.8 1.6,0 0,-0.2 0.3,-1.4 0.5,-2.7 0.9,-5.3 2.2,-9.9 4.3,-15.5 0.7,-2 3.3,-6.8 5,-9.3 5.3,-8 10.3,-12.3 17,-14.6 1.4,-0.5 2.1,-0.6 4.9,-0.6 2.9,0 3.4,0.1 5,0.7 4.4,1.7 8.6,5.8 10.3,10.3 1.9,4.8 0.8,10.3 -2.7,14.1 -2.5,2.6 -3.5,3.3 -10.9,7.1 -11.5,5.8 -15.1,9.4 -18.9,18.4 -2,4.8 -2.5,6.2 -2.3,6.6 0.3,0.6 0.8,0.5 1.5,-0.2 0.6,-0.7 1.1,-0.8 1.2,-0.2 0.1,0.5 -0.3,3.8 -0.8,6.4 -1,5.7 -5.2,13 -10.7,18.5 -3.1,3.2 -5.2,4.8 -8.6,6.4 -4.3,2.2 -7.7,3 -12.7,3 -3.5,0 -4.5,-0.1 -7.6,-1 -1.6,-0.4 -2.1,-0.3 -2.1,0.5 0,0.7 0.8,1.3 3.6,2.6 4.1,2 9,2.6 13.4,1.6 2.6,-0.5 4.4,-1.1 5.9,-1.9 2.9,-1.5 1.7,0.7 -1.5,2.7 -1.5,1 -1.8,1.4 -1.3,2 0.4,0.4 0.5,0.3 1.7,-0.1 1.9,-0.7 3.7,-2 6,-4.1 2.3,-2.1 4.3,-4.6 5.2,-6.3 0.4,-0.7 1.5,-2.1 2.6,-3.2 1.1,-1.1 2.4,-2.6 2.9,-3.2 0.9,-1.1 3.4,-4.8 4.1,-6 0.4,-0.8 1.2,-0.7 2.6,0.2 2.6,1.7 4.6,4.5 5.8,8 0.6,1.6 0.6,2.2 0.6,5.4 0,3.1 -0.1,3.9 -0.6,5.9 -1.4,5.1 -4.3,9.8 -9.1,14.6 -3.4,3.4 -8,7.2 -12.7,10.3 -5.8,3.9 -9.3,5.5 -16.8,7.6 -5.3,1.5 -13.4,1.9 -17.5,0.9 -6.9,-1.7 -12.1,-5.2 -14.2,-9.5 -0.8,-1.5 -0.8,-1.7 -0.8,-4.5 0,-2.6 0,-3 0.6,-4.1 l 0.6,-1.2 1.5,-0.2 c 1.3,-0.1 1.9,0 3.7,0.5 2,0.6 2.4,0.6 6.7,0.6 4.1,0 4.8,-0.1 6.9,-0.6 4.1,-1 8,-2.8 12.1,-5.4 2,-1.2 2.6,-1.9 2.2,-2.5 -0.3,-0.4 -0.8,-0.3 -3.3,0.9 -2.2,1 -6.7,2.7 -11.2,4.1 -0.9,0.3 -2.3,0.6 -3.1,0.6 -2.7,0.3 -2.9,-0.3 -0.4,-1.4 1.8,-0.8 3.3,-1.9 5.2,-3.7 1.2,-1.2 1.6,-1.7 1.6,-2.2 0,-1.4 -0.7,-1.3 -4.2,0.2 -1.5,0.7 -2.5,1.1 -6,2.4 -0.6,0.2 -2.3,0.7 -3.7,1.1 -2.4,0.6 -2.8,0.7 -7.7,0.7 -4.8,0 -5.5,0 -8.2,-0.6 -5.1,-1.1 -9.2,-2.7 -12.5,-4.8 -4,-2.6 -9.8,-8.1 -12,-11.5 -1.8,-2.7 -4.1,-7.6 -5.4,-11.4 -1.2,-3.5 -1.8,-4.4 -2.4,-3.9 -0.2,0.2 -0.3,0.7 -0.3,1.7 0.1,1.3 0,1.5 -0.4,1.5 -0.3,0 -1,-0.1 -1.6,-0.4 -1.2,-0.5 -1.4,-0.9 -0.8,-2.2 0.5,-1.1 0.5,-2.4 0,-4.5 -0.4,-1.8 -0.8,-2.4 -1.5,-2 -0.3,0.2 -0.4,0.6 -0.3,2.2 0.1,2.3 -0.3,3.8 -1.8,5.9 -1.2,1.8 -1.6,1.7 -2.3,-0.2 -0.3,-0.9 -0.8,-1.9 -1,-2.4 -0.6,-1.1 -0.6,-1.7 0,-2.4 0.6,-0.7 1.5,-2.9 2.1,-4.5 0.7,-2.1 1.7,-3 3.9,-3.4 1.9,-0.3 2.5,0 2.7,1.6 0.2,1.7 0.9,4.4 1.2,4.8 0.3,0.5 1.1,0.4 1.3,-0.1 0.1,-0.2 0.3,-1.6 0.4,-3.1 0.1,-1.5 0.3,-3.2 0.4,-3.8 0.1,-0.6 0.3,-1.9 0.5,-2.9 1.3,-9.9 5.5,-18.6 12.7,-26.7 6.5,-7.3 13.7,-12 22.8,-15.1 3.9,-1.3 7.3,-1.8 12,-1.9 2.9,0 10.8,0.5 14.2,0.9 1.4,0.2 2.3,-0.4 2,-1.4 -0.2,-1 -2.8,-2 -8.2,-3.3 -2,-0.5 -3,-0.5 -8.1,-0.6 h -5.8 v -1.5 c 0,-0.8 -0.2,-2.3 -0.4,-3.2 -0.4,-1.8 -2,-6 -2.7,-7 -0.2,-0.3 -0.7,-1.1 -1,-1.7 -0.3,-0.6 -1.5,-2.4 -2.7,-4 -1.3,-1.8 -2,-3 -1.9,-3.1 0.1,-0.1 0.6,0 1.3,0.3 0.6,0.3 1.2,0.5 1.3,0.5 0.1,0 0.8,0.3 1.5,0.6 1.2,0.6 1.4,0.6 1.9,0.3 0.4,-0.2 0.6,-0.6 0.7,-1 0.1,-0.5 -0.2,-0.9 -1.8,-2.3 -2,-1.7 -5.5,-3.6 -9.8,-5.4 -7.1,-2.9 -9.5,-4.2 -11.9,-6.6 -1.7,-1.7 -2.5,-3 -3.2,-5 -1.6,-4.8 -0.5,-9.4 3,-12.9 2.4,-2.4 5.8,-4.2 8.8,-4.7 1.1,-0.1 4.6,-0.1 6.4,0.2 z m -39.9,30.4 c 7.3,2 12.6,4.5 19.1,9.1 5.1,3.6 4.9,3.5 13.1,11.9 2.2,2.3 4.8,4.6 6.1,5.6 1.3,1 2.3,1.9 2.3,2.1 0,0.2 -0.4,0.4 -0.8,0.5 -1.9,0.5 -8.1,3.7 -10.8,5.5 -3.5,2.3 -8.6,6.6 -10.2,8.6 -1,1.2 -1.5,1 -2.1,-1 -0.6,-2.4 -2,-4.2 -3.7,-5 -0.9,-0.4 -0.7,-1 0.7,-1.6 1.5,-0.6 2.2,-1.3 2,-1.8 -0.1,-0.3 -0.4,-0.4 -1.3,-0.3 -7.5,0.8 -11.5,0.8 -14,0 -1.8,-0.6 -2,-1.2 -0.7,-1.8 2.4,-1 6.5,-4.4 6.9,-5.7 0.2,-0.6 -0.3,-1.4 -0.8,-1.4 -0.3,0 -1.5,0.5 -2.7,1.1 -1.2,0.6 -2.7,1.2 -3.2,1.4 -3.5,1.3 -4.5,1.6 -6.4,2.1 -4,1.1 -8.6,1.4 -11.9,0.9 -2.9,-0.5 -5.6,-1.9 -7.7,-4 -1.2,-1.2 -1.8,-2 -2.3,-3.3 -0.6,-1.5 -0.7,-1.9 -0.7,-4.6 0,-3.3 0.4,-5 1.9,-8.3 2.3,-4.9 7.1,-8.2 14.2,-10.1 2.7,-0.7 2.9,-0.7 7.1,-0.6 3.1,0.2 4.4,0.3 5.9,0.7 z m 10.7,52.8 c 0.5,0.2 0.5,0.7 -0.3,2 -1.5,2.5 -3.4,6.9 -4.3,10.2 -0.7,2.5 -1.1,2.6 -1.4,0.4 -0.2,-1.8 -0.4,-2.3 -1.1,-2.2 -0.5,0.1 -0.5,0.2 -0.7,2.3 -0.2,2.5 -0.9,4.6 -2.5,7 -1,1.6 -1.5,1.7 -1.8,0.2 -0.5,-2.5 -0.8,-3.5 -1.4,-5.1 -1.5,-3.9 -5,-7.8 -8,-9.2 -1,-0.5 -1,-0.5 -1.5,0 -0.7,0.7 -0.6,0.8 2.4,4.8 1.6,2.1 2.6,3.7 3.1,4.9 0.7,1.6 0.7,1.9 0.7,5.4 0,3.2 -0.1,3.9 -0.5,5.3 -0.8,2.3 -1.8,4.1 -3.3,5.7 -1.6,1.7 -3.2,2.8 -5.4,3.5 -2.3,0.8 -6.4,0.8 -8.8,0 -6.6,-2.1 -7.7,-5.4 -5.4,-15.5 1.4,-5.8 1.8,-7.2 2.6,-8.9 2.2,-4.6 5.9,-7.5 11.3,-9.1 4.3,-1.3 6.8,-1.5 16.6,-1.7 5.1,-0.1 9.2,-0.2 9.3,-0.2 -0.1,0.1 0.2,0.2 0.4,0.2 z m -6.1,20.5 c 0.2,0.8 -0.2,1.6 -0.7,1.6 -0.7,0 -0.8,-0.6 -0.3,-1.4 0.5,-0.8 0.9,-0.9 1,-0.2 z m -11.6,17.1 c 0.4,1.6 0.7,5.8 0.6,7.8 -0.4,6.5 -2.9,11.1 -7.1,13.3 -5,2.6 -9.7,2.1 -12.6,-1.3 -1.8,-2.1 -2.4,-4.9 -1.8,-8.2 0.1,-0.6 0.5,-2.6 0.8,-4.5 0.6,-3.3 1,-4.3 1.6,-3.9 0.6,0.4 4.8,0.5 7,0.3 3.3,-0.4 7.7,-1.9 9.6,-3.4 1,-0.8 1.8,-0.8 1.9,-0.1 z"
   id="path8" />
			<path
   class="st0"
   d="m 736.3,417 c -1.5,0.4 -4.6,1.6 -5.2,2.1 -0.6,0.5 -6.6,4.4 -9.2,6.1 -5.4,3.3 -10.6,5.5 -16.1,6.9 -2.3,0.6 -8.2,1.3 -10,1.2 -1.4,0 -2,1 -0.9,1.5 0.6,0.3 4.4,0.7 5.9,0.7 0.6,0 1.3,0.1 1.5,0.3 0.4,0.3 0.4,0.5 -1,3.6 -2.4,5.4 -2.6,5.7 -3.9,7.6 -1.6,2.5 -2.6,3.6 -4.6,5.3 -3.2,2.7 -7.6,5 -10.4,5.4 -1.4,0.2 -2.2,0.8 -1.9,1.4 0.1,0.4 0.4,0.4 1.9,0.3 4.8,-0.4 10.6,-3.2 15.2,-7.3 2.9,-2.6 4.3,-4.9 6.7,-10.4 0.7,-1.7 1.4,-3.3 1.5,-3.6 0.1,-0.3 0.4,-1 0.7,-1.6 0.5,-1.3 0.8,-1.5 2.8,-1.9 1.4,-0.3 3.8,-1 4.8,-1.4 1.8,-0.8 4,-1.9 5.2,-2.6 1.8,-1.1 2.2,-0.8 1.1,0.9 -2.1,3.4 -3.9,8.8 -4.3,13.1 -0.3,2.9 0,5.9 1.1,11 0.7,3.6 0.9,4.1 1.5,4.1 0.9,0 1,-0.9 0.7,-6.4 -0.4,-8.7 0.2,-11.9 3.7,-18.7 3.3,-6.6 7,-11 12.2,-14.4 0.9,-0.6 2,-1.2 2.3,-1.4 0.4,-0.2 0.8,-0.6 1,-0.9 0.4,-0.6 0.4,-0.6 0,-1 -0.6,-0.3 -0.6,-0.3 -2.3,0.1 z"
   id="path9" />
		</g><path
         style="fill:#ffffff;fill-opacity:1;stroke:none;stroke-width:0.621526;stroke-opacity:1"
         d="m 130.20962,234.21098 c -9.18997,-1.12715 -18.33402,-6.5437 -21.4899,-12.72974 -2.14678,-4.20803 -1.23659,-11.25936 1.54342,-11.9571 0.77792,-0.19524 3.48646,0.0865 6.01899,0.62616 6.13026,1.30624 14.14802,0.77786 20.55963,-1.3549 5.61686,-1.86839 14.4034,-6.95552 14.69643,-8.50877 0.29726,-1.57563 -1.03598,-1.37611 -6.87082,1.02822 -10.97274,4.52147 -22.38302,7.15351 -15.54057,3.58479 3.33881,-1.74138 8.45079,-6.59292 8.08965,-7.6775 -0.5019,-1.50731 -2.30433,-1.24027 -8.40659,1.24548 -9.41494,3.83516 -13.84647,4.69523 -22.07209,4.28373 -14.350752,-0.71792 -24.717532,-5.65819 -34.858687,-16.61185 -4.125288,-4.4558 -6.991089,-9.40873 -10.065035,-17.39529 -1.249919,-3.24748 -2.555834,-6.25103 -2.902033,-6.67456 -0.932005,-1.1402 -1.731658,-0.33714 -1.731658,1.73903 0,1.97634 -0.930895,2.3369 -2.697789,1.04491 -0.880305,-0.64369 -0.957067,-1.1136 -0.431495,-2.64148 0.828371,-2.40814 -0.464866,-8.07376 -1.842921,-8.07376 -0.690584,0 -1.012857,0.96682 -1.243051,3.72916 -0.20129,2.41548 -0.831153,4.56622 -1.788005,6.10537 -1.625433,2.61459 -1.819875,2.54346 -3.465581,-1.26766 l -1.131617,-2.62059 2.104932,-4.75193 c 2.224058,-5.02086 3.445542,-6.2739 6.42613,-6.59214 1.970352,-0.21038 1.901453,-0.32188 3.431411,5.55317 0.49571,1.90354 1.007956,2.64149 1.83358,2.64149 0.958568,0 1.214363,-0.68523 1.566106,-4.1953 1.172301,-11.6985 3.509326,-20.87338 7.131029,-27.99558 4.520212,-8.88915 14.382867,-20.17109 22.350399,-25.56672 5.839004,-3.954196 14.622455,-7.909616 20.934645,-9.427431 5.13048,-1.233667 6.5688,-1.304949 18.76382,-0.929877 12.72225,0.391287 13.20742,0.362654 13.20742,-0.779536 0,-1.795899 -1.29569,-2.54204 -7.26733,-4.185 -4.37996,-1.205051 -6.95283,-1.503632 -12.95676,-1.503632 h -7.49154 l -0.74862,-4.365608 c -0.90207,-5.260438 -3.27186,-10.633639 -7.21719,-16.364062 -1.61284,-2.342584 -2.8177,-4.373982 -2.67746,-4.51422 0.14024,-0.140237 1.26784,0.168224 2.50578,0.68547 2.95568,1.23496 4.54701,1.188733 5.06801,-0.147223 0.30859,-0.791266 -0.29449,-1.728685 -2.21302,-3.43991 -2.54204,-2.267366 -6.40489,-4.330912 -18.220851,-9.733629 -7.101725,-3.247186 -10.402393,-5.971811 -12.548665,-10.358634 -4.188409,-8.560799 -0.555942,-17.466307 9.02642,-22.129551 13.664776,-6.6499449 39.337106,7.426298 49.208356,26.981148 0.98485,1.950975 2.7972,6.987191 4.02744,11.191592 4.51848,15.44205 9.11612,28.21672 12.73646,35.388579 1.04632,2.072738 1.80514,3.865877 1.68626,3.98475 -0.11887,0.118873 -1.38935,-0.08166 -2.82328,-0.445634 -2.69419,-0.683858 -4.50028,-0.404222 -4.50028,0.696786 0,0.347644 1.60819,1.446464 3.57377,2.441813 5.27936,2.673418 9.45449,5.988511 12.44917,9.884769 l 2.66014,3.46099 -0.42443,10.45545 c -0.42186,10.39225 -0.41641,10.45544 0.90179,10.45544 0.87796,0 1.42093,-0.47266 1.60643,-1.39843 3.76611,-18.79513 7.20595,-27.437223 15.22668,-38.254777 4.56938,-6.162731 9.08464,-10.087908 14.95416,-12.999855 4.21223,-2.089743 5.17468,-2.322761 9.65103,-2.33659 6.05498,-0.01871 9.66089,1.514076 14.17814,6.026762 6.28029,6.273959 7.97638,14.189032 4.54388,21.204807 -2.32027,4.742443 -5.58198,7.392863 -15.69149,12.750713 -16.89161,8.95222 -20.66355,12.82705 -26.03402,26.74413 -1.56171,4.04702 -2.05226,6.0306 -1.60261,6.48025 0.44965,0.44965 1.03299,0.29959 1.90573,-0.49024 1.22409,-1.10778 1.25774,-1.10387 1.25774,0.14647 0,3.43635 -2.08771,11.4774 -4.05594,15.62195 -4.96246,10.44953 -13.21199,19.06308 -22.61025,23.60797 l -5.94321,2.87407 h -8.09018 c -4.4496,0 -9.27885,-0.24551 -10.73166,-0.54559 -2.44649,-0.5053 -2.64149,-0.44861 -2.64149,0.76797 0,0.97663 0.923,1.77947 3.59859,3.13009 6.98969,3.52839 15.26399,4.01587 22.85824,1.34671 1.97962,-0.69578 3.70737,-1.157 3.83944,-1.02493 0.13207,0.13207 -0.82707,1.03592 -2.13141,2.00855 -2.73271,2.03774 -3.34375,2.76189 -2.91538,3.45502 1.51479,2.45099 11.31174,-4.4772 15.93099,-11.26605 1.06431,-1.56419 3.44654,-4.5221 5.29386,-6.57313 1.84732,-2.05104 4.51184,-5.4772 5.92116,-7.61369 1.40933,-2.1365 2.81969,-3.88454 3.13413,-3.88454 1.45209,0 4.85414,2.80756 6.60489,5.4507 5.45769,8.2396 4.75098,19.07174 -1.91741,29.38903 -5.80722,8.9849 -19.56271,20.64086 -31.31616,26.53631 -6.01819,3.01868 -15.07358,5.62309 -22.03512,6.33748 -3.5068,0.35987 -6.69597,0.6124 -7.08705,0.56118 -0.39108,-0.0512 -1.55012,-0.19604 -2.57563,-0.32182 z m -4.55894,-64.37911 c 0.0564,-0.42729 0.13877,-5.11204 0.18309,-10.41055 0.0911,-10.89488 0.76148,-13.64249 5.51334,-22.59758 3.62544,-6.8323 8.28661,-12.21906 14.09494,-16.28906 4.66353,-3.26782 5.773,-4.67027 4.37712,-5.53297 -1.33261,-0.8236 -8.47887,2.4414 -15.67604,7.16211 -13.15729,8.63002 -22.71676,12.4439 -34.12491,13.6146 -3.511013,0.3603 -6.509496,0.78092 -6.6633,0.93472 -0.153803,0.15381 -0.12331,0.68704 0.06776,1.18497 0.233327,0.60805 1.73821,1.03952 4.582843,1.31396 5.878677,0.56718 5.897367,0.57668 5.126067,2.60534 -5.002914,13.15866 -12.603403,21.39843 -22.940437,24.86997 -7.419256,2.49164 -4.598991,4.57282 3.13585,2.31406 8.038377,-2.34741 16.899477,-9.1631 20.299657,-15.61389 1.04362,-1.97993 2.92764,-6.01836 4.18672,-8.9743 l 2.28924,-5.37441 4.0521,-1.01785 c 2.22865,-0.55982 5.98358,-1.99054 8.3443,-3.17938 2.36072,-1.18883 4.29221,-2.04956 4.29221,-1.91273 0,0.13685 -0.82828,2.02825 -1.84062,4.20312 -3.86869,8.31135 -4.70368,16.46108 -2.72942,26.64 1.00203,5.1663 1.68167,6.83678 2.78156,6.83678 0.29998,0 0.59155,-0.34961 0.64793,-0.77691 z"
         id="path60" /><path
         style="fill:#ffffff;fill-opacity:1;stroke:none;stroke-width:0.621526;stroke-opacity:1"
         d="m 70.955614,102.3353 c -0.716429,-2.391231 -2.819304,-5.155657 -4.495353,-5.909568 -0.645942,-0.290554 -0.685237,-0.496395 -0.143592,-0.752184 1.683308,-0.794931 3.905298,-2.891042 3.595693,-3.391992 -0.182531,-0.295343 -4.170729,-0.377727 -8.862661,-0.183075 -6.603837,0.273969 -9.013004,0.154269 -10.665611,-0.529922 l -2.134823,-0.883833 2.756349,-1.618006 c 3.390065,-1.990005 7.417792,-5.831472 7.417792,-7.074764 0,-1.773573 -1.879447,-1.609511 -7.062063,0.616466 -10.126385,4.349369 -21.202885,5.994821 -27.528567,4.089465 -3.488552,-1.050786 -8.23676,-4.766779 -9.687143,-7.58125 -1.658274,-3.217885 -1.582239,-10.328464 0.160245,-14.98567 3.485958,-9.317058 14.402356,-15.65903 26.627491,-15.469463 15.069176,0.233668 29.395573,7.748763 46.390978,24.334983 5.127587,5.004133 10.301787,9.899832 11.498224,10.879331 1.559297,1.276563 1.921177,1.867074 1.277867,2.085176 -0.493607,0.167347 -3.351214,1.532616 -6.350237,3.03393 -5.795807,2.901392 -13.146914,8.088345 -18.199668,12.841726 -1.689854,1.58973 -3.253779,2.89042 -3.475393,2.89042 -0.221615,0 -0.725403,-1.0763 -1.119528,-2.39177 z"
         id="path61" /><path
         style="fill:#ffffff;fill-opacity:1;stroke:none;stroke-width:0.621526;stroke-opacity:1"
         d="m 17.662069,160.66541 c -7.385901,-2.93046 -8.387328,-7.96429 -4.513274,-22.68672 3.173713,-12.06095 8.771005,-17.54069 20.31577,-19.8891 4.370321,-0.88901 29.931048,-2.00734 29.931048,-1.30954 0,0.22471 -0.939585,2.28946 -2.087966,4.58834 -1.148382,2.29888 -2.733001,6.13759 -3.521375,8.53046 -0.788375,2.39288 -1.502445,4.071 -1.586823,3.72916 -0.08438,-0.34184 -0.323049,-1.39067 -0.530382,-2.33072 -0.420576,-1.90691 -1.970225,-2.30254 -2.434499,-0.62153 -0.16522,0.59822 -0.472155,2.34626 -0.682077,3.88454 -0.386275,2.83056 -2.673994,7.59789 -3.699224,7.70873 -0.306912,0.0332 -1.024415,-1.61778 -1.594454,-3.66882 -0.570037,-2.05103 -1.537515,-4.6821 -2.14995,-5.84682 -1.469229,-2.79414 -6.380894,-8.00558 -8.651935,-9.17998 -1.586791,-0.82056 -1.916641,-0.82332 -2.717238,-0.0227 -0.800597,0.80059 -0.418129,1.6334 3.150693,6.86051 4.451681,6.52019 5.057158,8.43816 4.61375,14.615 -0.476027,6.63123 -4.0592,12.35543 -9.495564,15.16936 -3.627478,1.87764 -10.251541,2.09457 -14.3465,0.46985 z"
         id="path62" /><path
         style="fill:#ffffff;fill-opacity:1;stroke:none;stroke-width:0.621526;stroke-opacity:1"
         d="m 19.218616,191.57048 c -1.153395,-0.77727 -2.762736,-2.38547 -3.576313,-3.57377 -1.367979,-1.99806 -1.453403,-2.58126 -1.135796,-7.75428 0.18889,-3.07655 0.71258,-6.8255 1.163756,-8.331 l 0.820319,-2.73727 4.962129,0.11718 c 5.668035,0.13384 10.882837,-1.04488 15.329266,-3.46493 1.65104,-0.89861 3.197803,-1.43792 3.43725,-1.19847 0.239448,0.23945 0.549326,3.04111 0.68862,6.22593 0.300011,6.85952 -0.732735,11.15308 -3.766277,15.65801 -3.982597,5.91432 -12.912962,8.43483 -17.922954,5.0586 z"
         id="path63" /></g></g><g
     inkscape:groupmode="layer"
     id="layer3"
     inkscape:label="Crystall Ball Background"><circle
       style="display:inline;fill:url(#radialGradient118);fill-opacity:1;stroke:none;stroke-width:1.04205;stroke-opacity:1"
       id="glass-background"
       cx="256"
       cy="256"
       r="212.24815" /></g><g
     inkscape:label="Crystal Ball"
     inkscape:groupmode="layer"
     id="layer1"
     style="display:inline"><circle
       style="fill:url(#radialGradient3);stroke:none;stroke-opacity:0.37389842"
       id="glass"
       cx="256"
       cy="256"
       r="203.68346" /><circle
       style="fill:url(#radialGradient3-7);stroke:none;stroke-width:0.627543;stroke-opacity:0.720774"
       id="laser"
       cx="256"
       cy="256"
       r="127.8202" /><path
       id="stand"
       style="fill:url(#radialGradient128);fill-opacity:1;stroke:none;stroke-width:1.54126;stroke-opacity:0.322737;filter:url(#filter8)"
       d="m 147.85156,428.09375 -16.24804,31.45117 h 0.0215 L 89.636719,511.98828 H 422.36328 l -41.50195,-51.83594 h 0.5039 l -17.41392,-32.08077 -10.86622,6.44934 -12.52339,6.30107 -11.7658,4.96463 -12.25879,4.24187 -13.08594,3.71637 -13.63856,2.75344 -13.29503,1.58945 -6.0747,0.46246 -22.5835,0.52591 -11.40821,-0.86322 -13.35351,-1.76367 -13.58008,-2.69531 -13.08594,-3.49414 -12.32617,-4.17969 -11.90625,-4.92578 -12.46875,-6.08594 z"
       sodipodi:nodetypes="ccccccccccccccccccccccccc" /><path
       id="stand-shadow"
       style="display:inline;fill:url(#radialGradient128-8);fill-opacity:1;stroke:none;stroke-width:1.54126;stroke-opacity:0.322737;filter:url(#filter8-1)"
       d="m 147.79002,428.20456 -16.24804,31.45117 h 0.0215 L 89.575178,512.09909 H 422.30174 l -41.50195,-51.83594 h 0.5039 l -17.41392,-32.08077 -10.86622,6.44934 -12.52339,6.30107 -11.7658,4.96463 -12.25879,4.24187 -13.08594,3.71637 -13.63856,2.75344 -13.29503,1.58945 -6.0747,0.46246 -22.5835,0.52591 -11.40821,-0.86322 -13.35351,-1.76367 -13.58008,-2.69531 -13.08594,-3.49414 -12.32617,-4.17969 -11.90625,-4.92578 -12.46875,-6.08594 z"
       sodipodi:nodetypes="ccccccccccccccccccccccccc" /></g><g
     inkscape:groupmode="layer"
     id="layer2"
     inkscape:label="Hands"><g
       id="filled_hand_audience_right"
       transform="matrix(1.2365146,0,0,1.2365146,-99.379467,-35.478657)"><path
         class="st0"
         d="m 2091.5846,423.90367 c -0.3,0 -1.1,0.2 -1.8,0.4 -1.9,0.4 -4.4,1.8 -6.2,3.5 -3.1,2.9 -4.5,6.8 -4.5,12.8 0,5.2 1.3,10 4.4,15.5 1.8,3.3 4,5.8 7.6,8.8 0.7,0.6 1.4,1.2 1.4,1.4 0,0.1 -0.4,0.7 -0.8,1.3 -2.1,2.5 -3.6,7.2 -3.4,10.5 0.1,2.4 1.2,5.2 2.7,7.5 1.4,2 1.3,2.3 -1.5,2.5 -1.1,0.1 -2.8,0.4 -3.7,0.6 -0.9,0.3 -2,0.5 -2.4,0.6 -1.4,0.3 -4.1,1.7 -5.8,3.1 -4.1,3.3 -6.4,8.4 -6.4,14.4 0,1.7 0.1,3.3 0.4,4.3 0.2,0.9 0.5,1.9 0.5,2.3 0.3,1.4 1.5,4.2 2.7,5.9 2.7,4.2 7.3,7.3 10.6,7.3 1.7,0 2,0.5 1.4,2.5 -0.6,2.1 -0.6,5.5 0,7.9 1.2,5 4.5,9.6 8.7,12.4 3,1.9 5,2.7 9.1,3.6 2,0.4 8,0.1 10.2,-0.5 2.4,-0.7 7.1,-2.9 9.7,-4.7 3.1,-2.1 6.1,-4.2 7.6,-5.4 0.7,-0.6 2.1,-1.6 2.9,-2.3 0.9,-0.7 2,-1.5 2.4,-1.9 0.4,-0.4 0.9,-0.6 1,-0.6 0.1,0 0.6,-0.4 1.3,-0.9 0.6,-0.5 1.6,-1.2 2.2,-1.6 1,-0.6 3.7,-2.5 5.5,-3.8 0.5,-0.4 2.1,-1.6 3.7,-2.7 1.6,-1.1 3.4,-2.5 4.1,-3.1 1.3,-1 1.7,-1.2 1.7,-0.7 0,1.2 -3.5,5 -6.4,7.1 -0.9,0.7 -8.7,5 -8.9,5 -0.3,0 -3.9,2.4 -5.1,3.4 -1.7,1.4 -3.5,3.5 -4.3,5.4 -0.4,0.9 -0.9,1.8 -1,2 -0.4,0.8 -0.7,3.9 -0.6,5.4 0.5,4.7 4.4,8.30002 11.6,10.60002 1.5,0.5 2.7,0.7 4.9,0.8 4.6,0.2 7.8,-0.4 12.2,-2.2 3.4,-1.4 8.6,-5.00002 11.8,-8.30002 2.3,-2.3 6.4,-7.6 7.3,-9.4 0.2,-0.4 0.7,-1.3 1,-1.9 0.8,-1.3 1,-1.6 1.6,-3.3 0.6,-1.5 1.1,-1.6 3.6,-1 1.2,0.3 3.2,0.6 4.6,0.7 2.5,0.2 9,-0.2 10.8,-0.6 0.5,-0.1 2.4,-0.4 4.1,-0.7 7.7,-1.2 14,-3.3 20.9,-7.1 4.7,-2.5 10.6,-7.2 13.3,-10.5 0.8,-0.9 1.5,-1.7 1.8,-1.7 0.2,0 0.8,0.4 1.4,0.9 1.3,1.1 2.7,1.6 5.5,2.1 6.4,1.2 11.7,-1.1 18.3,-7.9 1.8,-1.9 3.5,-3.7 3.7,-4.1 0.2,-0.4 0.6,-1 0.9,-1.3 0.8,-1 3.6,-6.9 4.3,-9 1.3,-4.1 1.6,-6.9 1.6,-12.9 0,-3.5 -0.1,-6.3 -0.3,-7.4 -0.7,-3.9 -2,-9.3 -2.7,-11.1 -0.4,-1 -0.9,-2.4 -1,-2.9 -0.2,-0.5 -0.5,-1.3 -0.7,-1.7 -0.2,-0.4 -0.9,-1.8 -1.6,-3.2 -1.1,-2.3 -2.4,-4.4 -4.7,-7.7 -1.8,-2.6 -3.4,-4.2 -7.3,-7.5 -3.6,-3 -8.7,-5.1 -13.7,-5.7 -7.6,-0.8 -15.8,1 -20.4,4.7 -2,1.6 -4.4,5.3 -4.4,6.6 0,1 -0.3,2 -0.6,2.1 -0.2,0.1 -1.4,-0.4 -2.7,-0.9 -8.1,-3.6 -19.6,-5.4 -40,-6.1 -6.6,-0.2 -21,-1.1 -26.7,-1.7 -3.4,-0.3 -9.4,-1.2 -10.3,-1.5 -0.4,-0.1 -1.6,-0.4 -2.6,-0.6 -3.7,-0.7 -9.1,-2.5 -12.6,-4.2 -2.1,-1.1 -4.6,-2.5 -8.9,-5.2 -6.4,-4 -10.6,-6.2 -14.1,-7.5 -3.2,-0.7 -7,-1.2 -8.9,-0.9 z m 4.9,6.1 c 2.2,0.6 4.9,1.6 6.4,2.5 0.3,0.2 1,0.5 1.4,0.7 0.5,0.2 3.2,2 6.1,3.9 5,3.4 9.3,6 10.6,6.3 0.3,0.1 1,0.4 1.4,0.6 3,1.6 14.4,4.6 19.4,5.2 1,0.1 2.7,0.3 3.6,0.5 3.5,0.5 17.9,1.5 30.9,2 1.5,0.1 7.1,0.2 12.5,0.4 10.8,0.3 15.1,0.7 20.5,2.1 2.6,0.7 8.1,2.7 9.5,3.4 0.4,0.2 0.8,0.4 0.9,0.4 0.3,0 5.7,2.7 6.7,3.4 1.1,0.7 1.6,0.8 2,0.3 0.2,-0.3 0.2,-0.5 0,-1.1 -0.6,-1.6 -0.6,-1.6 0.1,-1.4 0.7,0.3 3.5,2.2 3.9,2.7 0.4,0.5 1.9,0.7 2.2,0.4 0.2,-0.2 0.1,-0.5 -0.2,-1.2 -0.2,-0.5 -0.5,-1 -0.6,-1 -0.1,0 -0.6,-0.4 -1.1,-0.9 -1.4,-1.3 -2.8,-2.3 -4.8,-3.1 -1.4,-0.6 -2,-0.7 -3.5,-0.7 -3,0 -3.7,-0.9 -2.1,-3.2 2.3,-3.6 4.8,-5.5 9,-6.9 5.4,-1.8 14.4,-1.2 19.5,1.3 4.6,2.2 9,7.2 12.7,14.3 1.4,2.6 4,8.5 4,9.1 0,0.2 0.2,0.7 0.5,1.1 0.4,0.8 0.7,1.8 1.6,6.2 0.2,0.9 0.4,3.2 0.6,5.2 0.2,3.1 0.2,4.4 -0.1,7.6 -0.2,2.2 -0.5,4.3 -0.6,4.6 -0.1,0.4 -0.4,1.4 -0.6,2.2 -0.4,1.7 -0.9,2.8 -2.2,5.4 -2.7,5.1 -6.2,9.1 -10.9,12 -2.3,1.5 -7.7,2.6 -10.2,2.1 -0.5,-0.1 -1.2,-0.5 -1.7,-1 -1.2,-1.1 -1.1,-2 0.2,-3.6 1.2,-1.4 3.7,-5.1 3.7,-5.4 0,-0.1 0.2,-0.5 0.4,-0.9 0.8,-1.2 2,-4.6 2.5,-7.6 1.1,-5.4 0.7,-10.7 -1,-15.3 -1.2,-3.1 -3.5,-6 -4,-4.9 -0.1,0.4 0.3,1.6 1.1,2.7 0.4,0.6 1.3,3 1.7,4.5 0.1,0.5 0.3,2.2 0.5,3.8 0.2,2.6 0.2,3.4 -0.1,5.9 -0.4,2.9 -0.7,3.9 -1.2,4.1 -0.2,0.1 -0.3,-0.5 -0.3,-2.3 0,-3.8 -0.9,-9.1 -2.2,-12.2 -0.3,-0.8 -0.9,-0.9 -1.5,-0.3 -0.5,0.5 -0.5,0.6 -0.2,1.6 0.1,0.6 0.4,2.1 0.5,3.3 0.4,2.7 0,8.4 -0.8,11.2 -2.3,8.7 -7.5,16.2 -16.1,22.9 -1.1,0.9 -5.5,3.6 -7.2,4.4 -4.8,2.4 -10.8,4.2 -17,4.9 -6.3,0.8 -8.1,1 -11.7,1.3 -2.2,0.2 -4,0.3 -4.1,0.2 -0.3,-0.2 -0.2,-0.9 0.2,-1.5 0.5,-0.7 0.4,-1.6 -0.2,-1.7 -0.6,-0.1 -1,0.3 -2,1.8 -0.9,1.3 -1.7,1.8 -2,1.3 -0.1,-0.2 -0.1,-0.5 0,-0.8 0.3,-0.9 0.2,-1.4 -0.2,-1.5 -0.6,-0.1 -1.1,0.4 -2.1,2.4 -3.5,6.9 -10.6,15 -17.3,19.7 -1.9,1.4 -6.7,3.7 -8,3.9 -0.5,0.1 -1.3,0.3 -1.8,0.5 -0.5,0.2 -2,0.4 -3.8,0.5 -2.7,0.1 -3.3,0 -5.4,-0.5 -4,-1 -7.1,-2.7 -8.4,-4.5 -1.5,-2.1 -1,-4.4 1.7,-7.3 2.4,-2.6 4.6,-4.1 10.5,-7.6 1.2,-0.7 2.6,-1.5 3.1,-1.8 1.3,-0.8 3.8,-2.9 5.3,-4.5 1.3,-1.3 4.6,-6.1 5,-7.2 0.1,-0.3 0.7,-1.6 1.3,-2.8 0.6,-1.2 1.5,-3.2 2,-4.3 0.5,-1.1 1.1,-2.3 1.3,-2.6 0.5,-0.7 0.6,-1.4 0.1,-2 -0.3,-0.4 -0.4,-0.4 -1,-0.2 -0.4,0.2 -1.2,0.9 -1.9,1.6 -2.7,2.9 -2.4,2.7 -3.6,2.6 -1,-0.1 -1.3,-0.1 -2.8,0.8 -1,0.5 -3.4,2.2 -5.4,3.7 -2,1.5 -4.5,3.3 -5.5,4 -1,0.7 -2.1,1.5 -2.5,1.8 -0.4,0.3 -2.1,1.5 -3.8,2.7 -1.7,1.2 -3.4,2.4 -3.8,2.7 -0.5,0.3 -1.2,0.9 -1.7,1.2 -0.5,0.3 -1.4,1 -2.1,1.6 -1.7,1.3 -7.8,5.3 -9.7,6.4 -3.2,1.7 -3.7,2 -6.1,2.9 -1.8,0.7 -3.4,1.1 -6.3,1.6 -2.1,0.4 -2.5,0.4 -4.7,0 -3.4,-0.5 -5.1,-1.3 -7.7,-3.3 -3.2,-2.5 -5.4,-6.3 -5.9,-9.7 -0.2,-1.8 -0.2,-2.1 0.2,-3.7 0.3,-1.1 0.9,-2.1 1.6,-3 1.6,-2 4.8,-3.9 7.4,-4.5 0.7,-0.1 1.4,-0.4 1.5,-0.5 0.1,-0.1 0.6,-0.3 1.3,-0.4 1.7,-0.2 9.2,-1.7 11.5,-2.3 3.1,-0.7 7.3,-2.7 10.2,-4.7 0.9,-0.6 2,-1.4 2.6,-1.8 1.5,-1 4.2,-3.2 6.7,-5.4 1.1,-1 3.3,-2.9 4.9,-4.2 3.2,-2.6 6.1,-5.3 7.5,-6.7 3.6,-3.7 4.5,-4.9 4.5,-5.4 0,-0.8 -0.8,-1.2 -1.5,-0.8 -1,0.5 -6.1,4.1 -8.1,5.6 -1,0.8 -2.1,1.6 -2.4,1.7 -0.3,0.1 -2.3,1.7 -4.5,3.5 -5.7,4.6 -10.7,8.2 -12.4,8.9 -0.5,0.2 -1,0.5 -1.2,0.6 -0.2,0.2 -0.8,0.4 -1.2,0.6 -0.5,0.2 -1,0.4 -1,0.5 -0.1,0.1 -0.5,0.3 -1,0.5 -0.5,0.2 -1.3,0.5 -1.8,0.7 -1.5,0.7 -3.8,1.3 -8,2.2 -10.9,2.4 -13.2,3.3 -17,6.3 -1.1,0.9 -1.3,0.9 -3.4,0.2 -3.6,-1.1 -6.6,-3.2 -8.5,-6.1 -2,-2.9 -2.9,-7.6 -2.2,-11.8 0.6,-3.9 2.3,-6.6 5.1,-8.4 2.9,-1.8 6.8,-2.4 16,-2.7 4.8,-0.1 6.3,-0.2 8.6,-0.7 3.1,-0.6 8.1,-2.1 8.9,-2.6 0.3,-0.2 0.6,-0.3 0.8,-0.3 0.4,0 5.3,-2.5 7.1,-3.5 0.7,-0.4 1.8,-1.1 2.6,-1.6 1.3,-0.8 5.4,-3.6 6.8,-4.6 4.6,-3.6 7.6,-6.2 10.7,-9.1 5.2,-4.9 5.6,-5.4 4.5,-6 -0.5,-0.3 -1,-0.1 -4.5,2.2 -0.7,0.5 -2.2,1.4 -3.4,2.1 -1.2,0.7 -2.7,1.7 -3.3,2.1 l -1.2,0.8 -2.9,-0.1 c -6.5,-0.1 -16.6,-1.9 -22.4,-3.9 -3.7,-1.3 -4.2,-1.4 -5.6,-2.1 -0.8,-0.4 -2,-1 -2.6,-1.3 -1.3,-0.6 -1.7,-0.9 -4.6,-2.8 -4.6,-3 -8.9,-8.1 -11,-12.9 -1.7,-4 -2.2,-9.6 -1.2,-12.8 0.7,-2.3 2.4,-4.6 4.1,-5.5 1.2,0 4.6,-0.4 6.4,0.1 z m 1,38.9 c 0.5,0.3 1,0.6 1.1,0.6 0.1,0 0.8,0.3 1.6,0.7 2.4,1.1 3.2,1.5 5.6,2.2 3.3,1 4.5,1.2 14.4,2.8 0.9,0.1 2.3,0.4 3,0.5 0.7,0.1 2,0.3 2.9,0.4 1.5,0.1 1.6,0.2 1.6,0.7 0,0.5 -1,1.5 -1.5,1.5 -0.1,0 -1,0.5 -1.8,1.1 -0.8,0.6 -1.7,1.1 -1.9,1.1 -0.2,0 -0.8,0.3 -1.3,0.7 -0.5,0.4 -1,0.7 -1.1,0.7 -0.1,0 -1.1,0.4 -2.2,1 -5.7,2.8 -10.6,4.2 -15.6,4.3 -2.7,0.1 -2.8,0 -5.1,-2 -2.8,-2.4 -4.4,-5.2 -4.7,-8.3 -0.3,-3.1 2,-8.6 3.6,-8.6 0.3,0 0.9,0.3 1.4,0.6 z"
         id="hand_audience_right"
         transform="translate(-1794.7789,-305.02728)" /><path
         style="fill:#ffffff;fill-opacity:1;stroke:none;stroke-width:0.621526;stroke-opacity:1"
         d="m 349.91892,252.43628 c -6.88765,-1.94167 -9.97824,-4.81826 -8.72322,-8.11922 0.96181,-2.52975 5.43499,-6.41862 11.64712,-10.12573 7.98072,-4.76252 11.75738,-8.9797 16.06342,-17.93712 1.86318,-3.87577 3.3876,-7.32445 3.3876,-7.6637 0,-1.50716 -1.37764,-1.18688 -3.62392,0.8425 -1.33718,1.20806 -3.00895,2.19646 -3.71504,2.19646 -1.42315,0 -3.8132,1.58159 -20.78311,13.75297 -18.81603,13.49547 -23.09426,15.67026 -30.92286,15.71926 -5.29656,0.0332 -8.25334,-1.1696 -11.58402,-4.71212 -5.39856,-5.74191 -5.69316,-11.45523 -0.80637,-15.63814 2.61688,-2.23995 5.97141,-3.40404 15.66405,-5.43574 3.33879,-0.69985 7.11456,-1.7081 8.3906,-2.24055 4.2857,-1.78828 10.33991,-6.14736 19.47861,-14.02471 11.74062,-10.12016 15.1006,-14.14657 11.80512,-14.14657 -1.2748,0 -8.77821,5.21308 -18.89367,13.12659 -8.46275,6.62056 -14.17812,9.35709 -25.18265,12.05748 -7.89559,1.93749 -12.47667,3.68588 -15.74133,6.00775 -1.50585,1.07098 -6.35592,-0.9662 -9.2931,-3.90338 -5.36448,-5.36448 -5.56371,-15.55767 -0.40082,-20.50669 2.54162,-2.43634 5.30811,-3.11347 15.29401,-3.74335 13.89909,-0.87671 21.03204,-3.04186 30.84763,-9.36354 8.77411,-5.65094 22.61272,-17.767 21.79821,-19.0849 -0.73893,-1.19561 -1.81556,-0.79458 -7.53605,2.80706 -5.47988,3.45015 -5.62373,3.49936 -9.88443,3.38182 -9.56287,-0.26383 -20.78183,-3.03827 -28.55175,-7.06082 -8.8156,-4.56392 -14.94874,-11.49055 -16.89258,-19.07812 -1.25216,-4.88766 -0.83355,-8.72441 1.30436,-11.955 1.52416,-2.30318 1.63547,-2.35135 5.43177,-2.35087 4.73596,6e-4 8.35031,1.5875 18.38414,8.07169 7.87252,5.08748 13.3893,7.43271 22.62797,9.61935 9.74948,2.30754 22.74129,3.39533 52.36329,4.38431 18.53694,0.6189 24.85292,1.96048 36.25369,7.70068 4.93828,2.48639 5.19281,2.5479 5.51084,1.33175 0.40959,-1.56628 0.7085,-1.56986 2.67455,-0.032 3.36999,2.63605 5.11451,0.7427 2.01996,-2.19228 -2.48114,-2.35321 -6.00271,-4.02297 -8.48453,-4.02297 -1.18989,0 -2.34555,-0.29469 -2.56815,-0.65486 -0.64179,-1.03845 2.25539,-4.82032 5.20649,-6.79635 4.96183,-3.3224 14.34629,-3.99471 21.4064,-1.53358 7.70557,2.68614 16.50808,15.37113 20.03629,28.87361 1.28459,4.91612 1.444,15.09553 0.31147,19.88882 -1.73888,7.35954 -7.55534,15.57728 -13.48513,19.05237 -3.53815,2.07349 -10.04908,2.76384 -11.34458,1.20285 -0.95944,-1.15605 -0.83026,-1.48885 2.79591,-7.20319 5.32516,-8.39167 6.05882,-20.23129 1.72351,-27.81327 -0.8307,-1.45281 -1.91811,-2.64148 -2.41646,-2.64148 -1.23543,0 -1.15415,0.551 0.66868,4.53259 1.29245,2.82307 1.57837,4.40776 1.59481,8.83906 0.0228,6.13639 -0.40371,7.43787 -0.98319,3.00036 -0.96244,-7.37004 -2.21502,-11.0795 -3.58683,-10.62223 -0.32885,0.10962 -0.64153,3.92045 -0.70291,8.56668 -0.0988,7.47892 -0.28245,8.77451 -1.72656,12.17903 -2.32994,5.49294 -5.95915,10.53973 -10.89701,15.15341 -9.50889,8.88464 -18.83091,12.24866 -38.80612,14.00387 l -4.74328,0.41679 0.30968,-1.61994 c 0.41473,-2.16955 -0.92816,-2.12583 -2.74179,0.0892 -1.36239,1.66396 -1.40002,1.67219 -1.42178,0.31076 -0.0123,-0.76913 -0.29559,-1.39843 -0.62955,-1.39843 -0.33396,0 -0.98709,0.6293 -1.4514,1.39843 -5.88639,9.75078 -11.98853,16.77259 -18.08454,20.81011 -6.08376,4.02941 -13.34003,5.72722 -18.39145,4.30318 z"
         id="path55" /><path
         style="fill:#ffffff;fill-opacity:1;stroke:none;stroke-width:0.310763;stroke-opacity:1"
         d="m 303.45988,180.78768 c -4.28267,-3.42694 -6.20795,-7.40401 -5.4205,-11.19714 0.45193,-2.17696 1.56666,-4.76156 2.42295,-5.61786 l 0.63755,-0.63754 3.54016,1.66984 c 5.68953,2.68368 9.24214,3.56645 22.5932,5.61403 2.99109,0.45872 5.49716,0.88936 5.56906,0.95697 0.18064,0.16988 -1.26152,1.67429 -1.60502,1.67429 -0.15306,0 -0.86286,0.39659 -1.57733,0.88132 -1.41256,0.95833 -2.12796,1.34573 -6.11587,3.3118 -6.0904,3.00262 -10.08095,4.1726 -15.07199,4.41893 l -3.41839,0.16871 z"
         id="path56" /></g><path
       style="mix-blend-mode:normal;fill:url(#linearGradient15);stroke:none;stroke-width:1.51181;filter:url(#filter15)"
       d="m 342.3481,268.37394 c 2.3784,-6.64014 14.12655,-19.36763 24.8605,-26.62498 10.73395,-7.25736 20.45332,-9.0445 32.6277,-11.09 12.17438,-2.0455 26.803,-4.34923 33.59301,-4.17975 6.79002,0.16948 5.74117,2.81212 2.23452,5.37564 -3.50665,2.56351 -9.47072,5.0477 -16.93541,6.93226 -7.46469,1.88456 -16.42909,3.16925 -22.76538,4.82039 -6.33629,1.65113 -10.04377,3.66854 -16.60754,9.14838 -6.56376,5.47985 -15.98336,14.42174 -24.18899,18.61637 -8.20563,4.19462 -15.19682,3.64184 -12.81841,-2.99831 z"
       id="hand_audience_right_palm_glow"
       inkscape:path-effect="#path-effect14"
       inkscape:original-d="m 332.97836,274.46129 c 11.74814,-12.72749 23.49629,-25.45498 35.24443,-38.18247 9.71976,-1.78722 19.43913,-3.57436 29.15869,-5.36154 14.6292,-2.30383 29.25782,-4.60755 43.88673,-6.91133 -1.04889,2.64274 -2.09773,5.28538 -3.14659,7.92807 -5.96444,2.48434 -11.92851,4.96853 -17.89294,7.45287 -8.96495,1.28478 -17.92935,2.56947 -26.8943,3.85425 -3.70763,2.01749 -7.41511,4.0349 -11.12267,6.05235 -9.41997,8.94224 -18.83957,17.88413 -28.25935,26.82619 -6.99148,-0.55281 -13.98267,-1.10559 -20.974,-1.65839 z"
       transform="translate(-7.4066407,7.4926597)"
       sodipodi:nodetypes="cccccccccc"
       inkscape:label="hand_audience_right_palm_glow" /><path
       style="mix-blend-mode:normal;fill:url(#linearGradient17);stroke:none;stroke-width:1.51181;filter:url(#filter17)"
       d="m 277.55914,182.68056 c -2.6853,-5.46429 -5.46252,-14.77143 -4.65668,-17.83727 0.80585,-3.06585 5.19461,0.10981 11.34302,3.22535 6.14841,3.11554 14.05589,6.17064 20.95008,9.84921 6.8942,3.67856 12.7746,7.98028 17.56644,11.53465 4.79185,3.55436 8.49455,6.36094 2.09111,6.55881 -6.40344,0.19788 -22.91256,-2.21302 -32.46399,-4.22914 -9.55143,-2.01611 -12.14468,-3.63731 -14.82998,-9.10161 z"
       id="hand_audience_right_index_glow"
       transform="translate(-14.630584,-25.819754)"
       inkscape:original-d="m 277.65113,186.52362 c -2.77729,-9.30735 -5.55451,-18.61449 -8.33187,-27.92206 4.38905,3.17588 8.77781,6.35154 13.16684,9.52741 7.90779,3.05521 15.81527,6.11031 23.72289,9.16546 5.88077,4.30198 11.76117,8.6037 17.64193,12.90568 3.70293,2.80675 7.40563,5.61333 11.10856,8.42008 -16.50981,-2.411 -33.01893,-4.8219 -49.52843,-7.23286 -2.59336,-1.62127 -5.18661,-3.24248 -7.77992,-4.86371 z"
       inkscape:path-effect="#path-effect16"
       sodipodi:nodetypes="cccccccc"
       inkscape:label="hand_audience_right_index_glow" /><g
       id="hand_audience_left_glow"
       inkscape:label="hand_audience_left_glow"><path
         style="display:inline;fill:url(#linearGradient20);stroke:none;stroke-width:1.51181;filter:url(#filter20)"
         d="m 69.804461,97.604508 c -2.177689,-1.335023 0.280061,-4.184377 2.807169,-8.664071 2.527107,-4.479694 5.12347,-10.589486 7.439295,-13.847172 2.315825,-3.257686 4.35098,-3.663128 9.698846,0.368099 5.347866,4.031227 14.008059,12.498797 18.166139,17.222637 4.15809,4.723839 3.81391,5.703744 4.48007,7.212791 0.66616,1.509048 2.34259,3.547138 -0.81113,9.317548 -3.15373,5.77042 -11.13732,15.27274 -16.235666,16.48937 -5.098342,1.21663 -7.311179,-5.85234 -8.45374,-11.75383 -1.14256,-5.9015 -1.214797,-10.63518 -4.657549,-12.91242 -3.442752,-2.277232 -10.255744,-2.097929 -12.433434,-3.432952 z"
         id="path19"
         inkscape:path-effect="#path-effect19"
         inkscape:original-d="m 65.169022,99.118838 c 2.45775,-2.849353 4.9155,-5.698707 7.37325,-8.54806 2.596466,-6.110035 5.192828,-12.219827 7.789241,-18.32974 2.035237,-0.405459 4.070392,-0.810901 6.105588,-1.216352 8.660535,8.467906 17.320729,16.935474 25.981089,25.40321 -0.34419,0.979944 -0.68837,1.959848 -1.03255,2.939772 1.6765,2.038172 3.35293,4.076262 5.0294,6.114392 -7.98392,9.5027 -15.96751,19.00502 -23.951273,28.50753 -2.212926,-7.06925 -4.425762,-14.13822 -6.638643,-21.20733 -0.07224,-4.73388 -0.144478,-9.46756 -0.216716,-14.201342 -6.813265,0.17931 -13.626257,0.358613 -20.439386,0.53792 z" /><path
         style="display:inline;fill:url(#linearGradient23);stroke:none;stroke-width:1.51181;filter:url(#filter20-6)"
         d="m 69.804461,97.604508 c -2.177689,-1.335023 0.280061,-4.184377 2.807169,-8.664071 2.527107,-4.479694 5.12347,-10.589486 7.439295,-13.847172 2.315825,-3.257686 4.35098,-3.663128 9.698846,0.368099 5.347866,4.031227 14.008059,12.498797 18.166139,17.222637 4.15809,4.723839 3.81391,5.703744 4.48007,7.212791 0.66616,1.509048 2.34259,3.547138 -0.81113,9.317548 -3.15373,5.77042 -11.13732,15.27274 -16.235666,16.48937 -5.098342,1.21663 -7.311179,-5.85234 -8.45374,-11.75383 -1.14256,-5.9015 -1.214797,-10.63518 -4.657549,-12.91242 -3.442752,-2.277232 -10.255744,-2.097929 -12.433434,-3.432952 z"
         id="path19-3"
         inkscape:path-effect="#path-effect19-6"
         inkscape:original-d="m 65.169022,99.118838 c 2.45775,-2.849353 4.9155,-5.698707 7.37325,-8.54806 2.596466,-6.110035 5.192828,-12.219827 7.789241,-18.32974 2.035237,-0.405459 4.070392,-0.810901 6.105588,-1.216352 8.660535,8.467906 17.320729,16.935474 25.981089,25.40321 -0.34419,0.979944 -0.68837,1.959848 -1.03255,2.939772 1.6765,2.038172 3.35293,4.076262 5.0294,6.114392 -7.98392,9.5027 -15.96751,19.00502 -23.951273,28.50753 -2.212926,-7.06925 -4.425762,-14.13822 -6.638643,-21.20733 -0.07224,-4.73388 -0.144478,-9.46756 -0.216716,-14.201342 -6.813265,0.17931 -13.626257,0.358613 -20.439386,0.53792 z"
         transform="translate(-29.404525,-0.91328648)" /><path
         style="display:inline;fill:url(#linearGradient24);stroke:none;stroke-width:1.51181;filter:url(#filter20-6-4)"
         d="m 69.804461,97.604508 c -2.177689,-1.335023 0.280061,-4.184377 2.807169,-8.664071 2.527107,-4.479694 5.12347,-10.589486 7.439295,-13.847172 2.315825,-3.257686 4.35098,-3.663128 9.698846,0.368099 5.347866,4.031227 14.008059,12.498797 18.166139,17.222637 4.15809,4.723839 3.81391,5.703744 4.48007,7.212791 0.66616,1.509048 2.34259,3.547138 -0.81113,9.317548 -3.15373,5.77042 -11.13732,15.27274 -16.235666,16.48937 -5.098342,1.21663 -7.311179,-5.85234 -8.45374,-11.75383 -1.14256,-5.9015 -1.214797,-10.63518 -4.657549,-12.91242 -3.442752,-2.277232 -10.255744,-2.097929 -12.433434,-3.432952 z"
         id="path19-3-3"
         inkscape:path-effect="#path-effect19-6-4"
         inkscape:original-d="m 65.169022,99.118838 c 2.45775,-2.849353 4.9155,-5.698707 7.37325,-8.54806 2.596466,-6.110035 5.192828,-12.219827 7.789241,-18.32974 2.035237,-0.405459 4.070392,-0.810901 6.105588,-1.216352 8.660535,8.467906 17.320729,16.935474 25.981089,25.40321 -0.34419,0.979944 -0.68837,1.959848 -1.03255,2.939772 1.6765,2.038172 3.35293,4.076262 5.0294,6.114392 -7.98392,9.5027 -15.96751,19.00502 -23.951273,28.50753 -2.212926,-7.06925 -4.425762,-14.13822 -6.638643,-21.20733 -0.07224,-4.73388 -0.144478,-9.46756 -0.216716,-14.201342 -6.813265,0.17931 -13.626257,0.358613 -20.439386,0.53792 z"
         transform="translate(140.64639,12.408704)" /><path
         style="display:inline;fill:url(#linearGradient24-1);stroke:none;stroke-width:1.51181;filter:url(#filter20-6-4-1)"
         d="m 69.804461,97.604508 c -2.177689,-1.335023 0.280061,-4.184377 2.807169,-8.664071 2.527107,-4.479694 5.12347,-10.589486 7.439295,-13.847172 2.315825,-3.257686 4.35098,-3.663128 9.698846,0.368099 5.347866,4.031227 14.008059,12.498797 18.166139,17.222637 4.15809,4.723839 3.81391,5.703744 4.48007,7.212791 0.66616,1.509048 2.34259,3.547138 -0.81113,9.317548 -3.15373,5.77042 -11.13732,15.27274 -16.235666,16.48937 -5.098342,1.21663 -7.311179,-5.85234 -8.45374,-11.75383 -1.14256,-5.9015 -1.214797,-10.63518 -4.657549,-12.91242 -3.442752,-2.277232 -10.255744,-2.097929 -12.433434,-3.432952 z"
         id="path19-3-3-9"
         inkscape:path-effect="#path-effect19-6-4-9"
         inkscape:original-d="m 65.169022,99.118838 c 2.45775,-2.849353 4.9155,-5.698707 7.37325,-8.54806 2.596466,-6.110035 5.192828,-12.219827 7.789241,-18.32974 2.035237,-0.405459 4.070392,-0.810901 6.105588,-1.216352 8.660535,8.467906 17.320729,16.935474 25.981089,25.40321 -0.34419,0.979944 -0.68837,1.959848 -1.03255,2.939772 1.6765,2.038172 3.35293,4.076262 5.0294,6.114392 -7.98392,9.5027 -15.96751,19.00502 -23.951273,28.50753 -2.212926,-7.06925 -4.425762,-14.13822 -6.638643,-21.20733 -0.07224,-4.73388 -0.144478,-9.46756 -0.216716,-14.201342 -6.813265,0.17931 -13.626257,0.358613 -20.439386,0.53792 z"
         transform="matrix(1.0862821,0,0,1.090973,113.47009,28.99588)" /><path
         style="display:inline;fill:url(#linearGradient25);stroke:none;stroke-width:1.51181;filter:url(#filter20-6-4-8)"
         d="m 69.804461,97.604508 c -2.177689,-1.335023 0.280061,-4.184377 2.807169,-8.664071 2.527107,-4.479694 5.12347,-10.589486 7.439295,-13.847172 2.315825,-3.257686 4.35098,-3.663128 9.698846,0.368099 5.347866,4.031227 14.008059,12.498797 18.166139,17.222637 4.15809,4.723839 3.81391,5.703744 4.48007,7.212791 0.66616,1.509048 2.34259,3.547138 -0.81113,9.317548 -3.15373,5.77042 -11.13732,15.27274 -16.235666,16.48937 -5.098342,1.21663 -7.311179,-5.85234 -8.45374,-11.75383 -1.14256,-5.9015 -1.214797,-10.63518 -4.657549,-12.91242 -3.442752,-2.277232 -10.255744,-2.097929 -12.433434,-3.432952 z"
         id="path19-3-3-4"
         inkscape:path-effect="#path-effect19-6-4-3"
         inkscape:original-d="m 65.169022,99.118838 c 2.45775,-2.849353 4.9155,-5.698707 7.37325,-8.54806 2.596466,-6.110035 5.192828,-12.219827 7.789241,-18.32974 2.035237,-0.405459 4.070392,-0.810901 6.105588,-1.216352 8.660535,8.467906 17.320729,16.935474 25.981089,25.40321 -0.34419,0.979944 -0.68837,1.959848 -1.03255,2.939772 1.6765,2.038172 3.35293,4.076262 5.0294,6.114392 -7.98392,9.5027 -15.96751,19.00502 -23.951273,28.50753 -2.212926,-7.06925 -4.425762,-14.13822 -6.638643,-21.20733 -0.07224,-4.73388 -0.144478,-9.46756 -0.216716,-14.201342 -6.813265,0.17931 -13.626257,0.358613 -20.439386,0.53792 z"
         transform="matrix(1.7664249,0,0,1.8818372,-14.817311,-11.430234)" /><path
         style="display:inline;fill:url(#linearGradient21);stroke:none;stroke-width:1.51181;filter:url(#filter20-7)"
         d="m 69.804461,97.604508 c -2.177689,-1.335023 0.280061,-4.184377 2.807169,-8.664071 2.527107,-4.479694 5.12347,-10.589486 7.439295,-13.847172 2.315825,-3.257686 4.35098,-3.663128 9.698846,0.368099 5.347866,4.031227 14.008059,12.498797 18.166139,17.222637 4.15809,4.723839 3.81391,5.703744 4.48007,7.212791 0.66616,1.509048 2.34259,3.547138 -0.81113,9.317548 -3.15373,5.77042 -11.13732,15.27274 -16.235666,16.48937 -5.098342,1.21663 -7.311179,-5.85234 -8.45374,-11.75383 -1.14256,-5.9015 -1.214797,-10.63518 -4.657549,-12.91242 -3.442752,-2.277232 -10.255744,-2.097929 -12.433434,-3.432952 z"
         id="path19-0"
         inkscape:path-effect="#path-effect19-4"
         inkscape:original-d="m 65.169022,99.118838 c 2.45775,-2.849353 4.9155,-5.698707 7.37325,-8.54806 2.596466,-6.110035 5.192828,-12.219827 7.789241,-18.32974 2.035237,-0.405459 4.070392,-0.810901 6.105588,-1.216352 8.660535,8.467906 17.320729,16.935474 25.981089,25.40321 -0.34419,0.979944 -0.68837,1.959848 -1.03255,2.939772 1.6765,2.038172 3.35293,4.076262 5.0294,6.114392 -7.98392,9.5027 -15.96751,19.00502 -23.951273,28.50753 -2.212926,-7.06925 -4.425762,-14.13822 -6.638643,-21.20733 -0.07224,-4.73388 -0.144478,-9.46756 -0.216716,-14.201342 -6.813265,0.17931 -13.626257,0.358613 -20.439386,0.53792 z"
         transform="translate(39.541912,-11.027334)" /><path
         style="display:inline;fill:url(#linearGradient21-0);stroke:none;stroke-width:1.51181;filter:url(#filter20-7-9)"
         d="m 69.804461,97.604508 c -2.177689,-1.335023 0.280061,-4.184377 2.807169,-8.664071 2.527107,-4.479694 5.12347,-10.589486 7.439295,-13.847172 2.315825,-3.257686 4.35098,-3.663128 9.698846,0.368099 5.347866,4.031227 14.008059,12.498797 18.166139,17.222637 4.15809,4.723839 3.81391,5.703744 4.48007,7.212791 0.66616,1.509048 2.34259,3.547138 -0.81113,9.317548 -3.15373,5.77042 -11.13732,15.27274 -16.235666,16.48937 -5.098342,1.21663 -7.311179,-5.85234 -8.45374,-11.75383 -1.14256,-5.9015 -1.214797,-10.63518 -4.657549,-12.91242 -3.442752,-2.277232 -10.255744,-2.097929 -12.433434,-3.432952 z"
         id="path19-0-9"
         inkscape:path-effect="#path-effect19-4-6"
         inkscape:original-d="m 65.169022,99.118838 c 2.45775,-2.849353 4.9155,-5.698707 7.37325,-8.54806 2.596466,-6.110035 5.192828,-12.219827 7.789241,-18.32974 2.035237,-0.405459 4.070392,-0.810901 6.105588,-1.216352 8.660535,8.467906 17.320729,16.935474 25.981089,25.40321 -0.34419,0.979944 -0.68837,1.959848 -1.03255,2.939772 1.6765,2.038172 3.35293,4.076262 5.0294,6.114392 -7.98392,9.5027 -15.96751,19.00502 -23.951273,28.50753 -2.212926,-7.06925 -4.425762,-14.13822 -6.638643,-21.20733 -0.07224,-4.73388 -0.144478,-9.46756 -0.216716,-14.201342 -6.813265,0.17931 -13.626257,0.358613 -20.439386,0.53792 z"
         transform="translate(23.059424,-43.490418)" /><path
         style="display:inline;fill:url(#linearGradient22);stroke:none;stroke-width:1.51181;filter:url(#filter20-7-3)"
         d="m 69.804461,97.604508 c -2.177689,-1.335023 0.280061,-4.184377 2.807169,-8.664071 2.527107,-4.479694 5.12347,-10.589486 7.439295,-13.847172 2.315825,-3.257686 4.35098,-3.663128 9.698846,0.368099 5.347866,4.031227 14.008059,12.498797 18.166139,17.222637 4.15809,4.723839 3.81391,5.703744 4.48007,7.212791 0.66616,1.509048 2.34259,3.547138 -0.81113,9.317548 -3.15373,5.77042 -11.13732,15.27274 -16.235666,16.48937 -5.098342,1.21663 -7.311179,-5.85234 -8.45374,-11.75383 -1.14256,-5.9015 -1.214797,-10.63518 -4.657549,-12.91242 -3.442752,-2.277232 -10.255744,-2.097929 -12.433434,-3.432952 z"
         id="path19-0-1"
         inkscape:path-effect="#path-effect19-4-0"
         inkscape:original-d="m 65.169022,99.118838 c 2.45775,-2.849353 4.9155,-5.698707 7.37325,-8.54806 2.596466,-6.110035 5.192828,-12.219827 7.789241,-18.32974 2.035237,-0.405459 4.070392,-0.810901 6.105588,-1.216352 8.660535,8.467906 17.320729,16.935474 25.981089,25.40321 -0.34419,0.979944 -0.68837,1.959848 -1.03255,2.939772 1.6765,2.038172 3.35293,4.076262 5.0294,6.114392 -7.98392,9.5027 -15.96751,19.00502 -23.951273,28.50753 -2.212926,-7.06925 -4.425762,-14.13822 -6.638643,-21.20733 -0.07224,-4.73388 -0.144478,-9.46756 -0.216716,-14.201342 -6.813265,0.17931 -13.626257,0.358613 -20.439386,0.53792 z"
         transform="rotate(-92.205158,101.94479,140.55029)" /><path
         style="display:inline;fill:url(#linearGradient22-4);stroke:none;stroke-width:1.51181;filter:url(#filter20-7-3-1)"
         d="m 69.804461,97.604508 c -2.177689,-1.335023 0.280061,-4.184377 2.807169,-8.664071 2.527107,-4.479694 5.12347,-10.589486 7.439295,-13.847172 2.315825,-3.257686 4.35098,-3.663128 9.698846,0.368099 5.347866,4.031227 14.008059,12.498797 18.166139,17.222637 4.15809,4.723839 3.81391,5.703744 4.48007,7.212791 0.66616,1.509048 2.34259,3.547138 -0.81113,9.317548 -3.15373,5.77042 -11.13732,15.27274 -16.235666,16.48937 -5.098342,1.21663 -7.311179,-5.85234 -8.45374,-11.75383 -1.14256,-5.9015 -1.214797,-10.63518 -4.657549,-12.91242 -3.442752,-2.277232 -10.255744,-2.097929 -12.433434,-3.432952 z"
         id="path19-0-1-2"
         inkscape:path-effect="#path-effect19-4-0-2"
         inkscape:original-d="m 65.169022,99.118838 c 2.45775,-2.849353 4.9155,-5.698707 7.37325,-8.54806 2.596466,-6.110035 5.192828,-12.219827 7.789241,-18.32974 2.035237,-0.405459 4.070392,-0.810901 6.105588,-1.216352 8.660535,8.467906 17.320729,16.935474 25.981089,25.40321 -0.34419,0.979944 -0.68837,1.959848 -1.03255,2.939772 1.6765,2.038172 3.35293,4.076262 5.0294,6.114392 -7.98392,9.5027 -15.96751,19.00502 -23.951273,28.50753 -2.212926,-7.06925 -4.425762,-14.13822 -6.638643,-21.20733 -0.07224,-4.73388 -0.144478,-9.46756 -0.216716,-14.201342 -6.813265,0.17931 -13.626257,0.358613 -20.439386,0.53792 z"
         transform="rotate(-92.205158,118.74675,158.3927)" /></g></g><style
     type="text/css"
     id="style1">
	.st0{fill-rule:evenodd;clip-rule:evenodd;fill:#010101;}
</style><style
     type="text/css"
     id="style1-2">
	.st0{fill-rule:evenodd;clip-rule:evenodd;fill:#010101;}
</style></svg>
